<svg xmlns="http://www.w3.org/2000/svg" viewBox="0 0 400 600" role="img" aria-label="SPIDER-MAN poster">
  <defs>
    <linearGradient id="bg" x1="0" y1="0" x2="1" y2="1"><stop offset="0" stop-color="#dc2626"/><stop offset="0.48" stop-color="#191919"/><stop offset="1" stop-color="#07112a"/></linearGradient>
    <radialGradient id="spot" cx="50%" cy="32%" r="55%"><stop offset="0" stop-color="#ffffff" stop-opacity="0.28"/><stop offset="1" stop-color="#000000" stop-opacity="0"/></radialGradient>
    <pattern id="grid" width="34" height="34" patternUnits="userSpaceOnUse"><path d="M34 0H0v34" fill="none" stroke="#fff" stroke-opacity="0.055" stroke-width="1"/></pattern>
  </defs>
  <rect width="400" height="600" fill="url(#bg)"/>
  <rect width="400" height="600" fill="url(#grid)"/>
  <rect width="400" height="600" fill="url(#spot)"/>
  <path d="M55 92 C135 30 276 35 345 102 L320 130 C255 84 151 82 82 132 Z" fill="#fff" opacity="0.18"/>
  <circle cx="200" cy="192" r="82" fill="#050505" opacity="0.58"/>
  <circle cx="200" cy="192" r="70" fill="none" stroke="#fff" stroke-opacity="0.22" stroke-width="4"/>
  <path d="M176 143v98l84-49z" fill="#fff"/>
  <path d="M0 462 C90 424 152 480 230 444 C303 410 352 432 400 397 V600 H0 Z" fill="#000" opacity="0.42"/>
  <text x="200" y="344" text-anchor="middle" font-family="Arial, sans-serif" font-size="34" font-weight="900" fill="#fff">SPIDER-MAN</text>
  <text x="200" y="478" text-anchor="middle" font-family="Arial, sans-serif" font-size="22" font-weight="700" fill="#fff" opacity="0.78">2021 - NO WAY HOME</text>
  <text x="200" y="530" text-anchor="middle" font-family="Arial, sans-serif" font-size="28" font-weight="900" fill="#dc2626">STREAMBOX</text>
  <rect x="24" y="24" width="352" height="552" rx="20" fill="none" stroke="#fff" stroke-opacity="0.18" stroke-width="2"/>
</svg>